<mxfile host="app.diagrams.net" modified="2023-12-05T12:20:25.966Z" agent="Mozilla/5.0 (Windows NT 10.0; Win64; x64) AppleWebKit/537.36 (KHTML, like Gecko) Chrome/119.0.0.0 Safari/537.36 Edg/119.0.0.0" etag="InDk4thd3gn0ya-RhtbI" version="22.1.5" type="github">
  <diagram name="Page-1" id="qiDM4ziq56d5XpzsaD7P">
    <mxGraphModel dx="2074" dy="1187" grid="1" gridSize="10" guides="1" tooltips="1" connect="1" arrows="1" fold="1" page="1" pageScale="1" pageWidth="2000" pageHeight="1100" math="0" shadow="0">
      <root>
        <mxCell id="0" />
        <mxCell id="1" parent="0" />
        <mxCell id="xhmgnkYeymZ3gwsp_tDr-28" style="edgeStyle=orthogonalEdgeStyle;rounded=0;orthogonalLoop=1;jettySize=auto;html=1;" parent="1" source="xhmgnkYeymZ3gwsp_tDr-1" target="xhmgnkYeymZ3gwsp_tDr-13" edge="1">
          <mxGeometry relative="1" as="geometry" />
        </mxCell>
        <mxCell id="xhmgnkYeymZ3gwsp_tDr-1" value="DataRowList" style="rounded=0;whiteSpace=wrap;html=1;" parent="1" vertex="1">
          <mxGeometry x="359" y="235" width="110" height="40" as="geometry" />
        </mxCell>
        <mxCell id="xhmgnkYeymZ3gwsp_tDr-29" style="edgeStyle=orthogonalEdgeStyle;rounded=0;orthogonalLoop=1;jettySize=auto;html=1;entryX=0.5;entryY=0;entryDx=0;entryDy=0;" parent="1" source="xhmgnkYeymZ3gwsp_tDr-2" target="xhmgnkYeymZ3gwsp_tDr-13" edge="1">
          <mxGeometry relative="1" as="geometry" />
        </mxCell>
        <mxCell id="xhmgnkYeymZ3gwsp_tDr-2" value="LasDataRowList" style="rounded=0;whiteSpace=wrap;html=1;" parent="1" vertex="1">
          <mxGeometry x="519" y="235" width="110" height="40" as="geometry" />
        </mxCell>
        <mxCell id="xhmgnkYeymZ3gwsp_tDr-5" style="edgeStyle=orthogonalEdgeStyle;rounded=0;orthogonalLoop=1;jettySize=auto;html=1;entryX=0;entryY=0.5;entryDx=0;entryDy=0;" parent="1" source="xhmgnkYeymZ3gwsp_tDr-3" target="xhmgnkYeymZ3gwsp_tDr-4" edge="1">
          <mxGeometry relative="1" as="geometry" />
        </mxCell>
        <mxCell id="xhmgnkYeymZ3gwsp_tDr-3" value="Report&lt;br&gt;Strategy" style="whiteSpace=wrap;html=1;fillColor=#fad9d5;strokeColor=#ae4132;" parent="1" vertex="1">
          <mxGeometry x="966" y="380" width="80" height="190" as="geometry" />
        </mxCell>
        <mxCell id="xhmgnkYeymZ3gwsp_tDr-4" value="Report" style="shape=document;whiteSpace=wrap;html=1;boundedLbl=1;" parent="1" vertex="1">
          <mxGeometry x="1146" y="435" width="100" height="80" as="geometry" />
        </mxCell>
        <mxCell id="xhmgnkYeymZ3gwsp_tDr-7" style="edgeStyle=orthogonalEdgeStyle;rounded=0;orthogonalLoop=1;jettySize=auto;html=1;entryX=0;entryY=0.5;entryDx=0;entryDy=0;" parent="1" source="xhmgnkYeymZ3gwsp_tDr-6" target="xhmgnkYeymZ3gwsp_tDr-3" edge="1">
          <mxGeometry relative="1" as="geometry" />
        </mxCell>
        <mxCell id="xhmgnkYeymZ3gwsp_tDr-6" value="Data&lt;br&gt;Organizer" style="whiteSpace=wrap;html=1;fillColor=#fad9d5;strokeColor=#ae4132;" parent="1" vertex="1">
          <mxGeometry x="780" y="380" width="80" height="190" as="geometry" />
        </mxCell>
        <mxCell id="xhmgnkYeymZ3gwsp_tDr-11" style="edgeStyle=orthogonalEdgeStyle;rounded=0;orthogonalLoop=1;jettySize=auto;html=1;entryX=0.5;entryY=0;entryDx=0;entryDy=0;" parent="1" source="xhmgnkYeymZ3gwsp_tDr-10" target="xhmgnkYeymZ3gwsp_tDr-1" edge="1">
          <mxGeometry relative="1" as="geometry" />
        </mxCell>
        <mxCell id="xhmgnkYeymZ3gwsp_tDr-12" style="edgeStyle=orthogonalEdgeStyle;rounded=0;orthogonalLoop=1;jettySize=auto;html=1;" parent="1" source="xhmgnkYeymZ3gwsp_tDr-10" target="xhmgnkYeymZ3gwsp_tDr-2" edge="1">
          <mxGeometry relative="1" as="geometry" />
        </mxCell>
        <mxCell id="xhmgnkYeymZ3gwsp_tDr-10" value="DB Query" style="shape=cylinder3;whiteSpace=wrap;html=1;boundedLbl=1;backgroundOutline=1;size=15;" parent="1" vertex="1">
          <mxGeometry x="459" y="100" width="70" height="60" as="geometry" />
        </mxCell>
        <mxCell id="xhmgnkYeymZ3gwsp_tDr-30" style="edgeStyle=orthogonalEdgeStyle;rounded=0;orthogonalLoop=1;jettySize=auto;html=1;entryX=0.5;entryY=0;entryDx=0;entryDy=0;" parent="1" source="xhmgnkYeymZ3gwsp_tDr-13" target="xhmgnkYeymZ3gwsp_tDr-14" edge="1">
          <mxGeometry relative="1" as="geometry" />
        </mxCell>
        <mxCell id="xhmgnkYeymZ3gwsp_tDr-13" value="处理往期数据" style="rounded=0;whiteSpace=wrap;html=1;fillColor=#fad9d5;strokeColor=#ae4132;" parent="1" vertex="1">
          <mxGeometry x="359" y="345" width="270" height="35" as="geometry" />
        </mxCell>
        <mxCell id="xhmgnkYeymZ3gwsp_tDr-17" value="" style="group" parent="1" vertex="1" connectable="0">
          <mxGeometry x="364" y="440" width="260" height="70" as="geometry" />
        </mxCell>
        <mxCell id="xhmgnkYeymZ3gwsp_tDr-14" value="" style="rounded=0;whiteSpace=wrap;html=1;" parent="xhmgnkYeymZ3gwsp_tDr-17" vertex="1">
          <mxGeometry width="260" height="70" as="geometry" />
        </mxCell>
        <mxCell id="xhmgnkYeymZ3gwsp_tDr-15" value="DataRowList" style="ellipse;whiteSpace=wrap;html=1;" parent="xhmgnkYeymZ3gwsp_tDr-17" vertex="1">
          <mxGeometry x="10" y="12.5" width="100" height="45" as="geometry" />
        </mxCell>
        <mxCell id="xhmgnkYeymZ3gwsp_tDr-16" value="LasDataRowList" style="ellipse;whiteSpace=wrap;html=1;" parent="xhmgnkYeymZ3gwsp_tDr-17" vertex="1">
          <mxGeometry x="150" y="12.5" width="100" height="45" as="geometry" />
        </mxCell>
        <mxCell id="xhmgnkYeymZ3gwsp_tDr-32" style="edgeStyle=orthogonalEdgeStyle;rounded=0;orthogonalLoop=1;jettySize=auto;html=1;entryX=0;entryY=0.5;entryDx=0;entryDy=0;" parent="1" source="xhmgnkYeymZ3gwsp_tDr-14" target="xhmgnkYeymZ3gwsp_tDr-6" edge="1">
          <mxGeometry relative="1" as="geometry" />
        </mxCell>
        <mxCell id="xhmgnkYeymZ3gwsp_tDr-36" value="团队树结构" style="text;html=1;align=right;verticalAlign=middle;resizable=0;points=[];autosize=1;strokeColor=none;fillColor=none;flipV=0;flipH=1;fontColor=#B8B8B8;" parent="1" vertex="1">
          <mxGeometry x="200" y="285" width="80" height="30" as="geometry" />
        </mxCell>
        <mxCell id="xhmgnkYeymZ3gwsp_tDr-37" value="普通列表结构" style="text;html=1;align=right;verticalAlign=middle;resizable=0;points=[];autosize=1;strokeColor=none;fillColor=none;flipV=0;flipH=1;" parent="1" vertex="1">
          <mxGeometry x="180" y="365" width="100" height="30" as="geometry" />
        </mxCell>
        <mxCell id="xhmgnkYeymZ3gwsp_tDr-38" value="周期列表结构" style="text;html=1;align=right;verticalAlign=middle;resizable=0;points=[];autosize=1;strokeColor=none;fillColor=none;flipV=0;flipH=1;" parent="1" vertex="1">
          <mxGeometry x="180" y="405" width="100" height="30" as="geometry" />
        </mxCell>
        <mxCell id="xhmgnkYeymZ3gwsp_tDr-39" value="周期团队树结构" style="text;html=1;align=right;verticalAlign=middle;resizable=0;points=[];autosize=1;strokeColor=none;fillColor=none;flipV=0;flipH=1;fontColor=#B8B8B8;" parent="1" vertex="1">
          <mxGeometry x="170" y="325" width="110" height="30" as="geometry" />
        </mxCell>
        <mxCell id="xhmgnkYeymZ3gwsp_tDr-41" style="edgeStyle=orthogonalEdgeStyle;rounded=0;orthogonalLoop=1;jettySize=auto;html=1;entryX=0;entryY=0.5;entryDx=0;entryDy=0;" parent="1" source="xhmgnkYeymZ3gwsp_tDr-40" target="xhmgnkYeymZ3gwsp_tDr-13" edge="1">
          <mxGeometry relative="1" as="geometry" />
        </mxCell>
        <mxCell id="xhmgnkYeymZ3gwsp_tDr-40" value="" style="shape=curlyBracket;whiteSpace=wrap;html=1;rounded=1;flipH=1;labelPosition=right;verticalLabelPosition=middle;align=left;verticalAlign=middle;" parent="1" vertex="1">
          <mxGeometry x="289" y="302.5" width="20" height="120" as="geometry" />
        </mxCell>
        <mxCell id="xhmgnkYeymZ3gwsp_tDr-42" value="团队树结构" style="text;html=1;align=center;verticalAlign=middle;resizable=0;points=[];autosize=1;strokeColor=none;fillColor=none;flipV=0;flipH=1;" parent="1" vertex="1">
          <mxGeometry x="780" y="590" width="80" height="30" as="geometry" />
        </mxCell>
        <mxCell id="xhmgnkYeymZ3gwsp_tDr-43" value="周期团队树结构" style="text;html=1;align=center;verticalAlign=middle;resizable=0;points=[];autosize=1;strokeColor=none;fillColor=none;flipV=0;flipH=1;" parent="1" vertex="1">
          <mxGeometry x="765" y="630" width="110" height="30" as="geometry" />
        </mxCell>
      </root>
    </mxGraphModel>
  </diagram>
</mxfile>
